<svg version="1.1"
	baseProfile="full"
	xmlns="http://www.w3.org/2000/svg"
	width="1200" height="600" viewBox="0 0 1200 600">
	<rect x="0" y="0" width="100%" height="100%" style="fill:black"/>
	<rect x="0" y="540" width="100%" height="20%" style="fill:blue"/>
	<rect x="800" y="440" width="100%" height="40" style="fill:blue"/>
	<rect x="170" y="450" width="30%" height="40" style="fill:blue"/>
	<rect x="0" y="325" width="66.66%" height="40" style="fill:blue"/>
	<rect x="0" y="200" width="33.33%"	 height="40" style="fill:blue"/>
	<rect x="600" y="210" width="100%"	 height="40" style="fill:blue"/>
	<rect x="800" y="120" width="100%"	 height="40" style="fill:blue"/>
	<rect x="0" y="35" width="70%"	 height="40" style="fill:blue"/>
	<rect x="170" y="450" width="30" height="90" style="fill: white;stroke:red;stroke-width:5;"/>
	<rect x="1170" y="450" width="30" height="90" style="fill: white;stroke:red;stroke-width:5;"/>
	<rect x="800" y="210" width="30" height="240" style="fill: white;stroke:red;stroke-width:5;"/>
	<rect x="375" y="30" width="30" height="170" style="fill: white;stroke:red;stroke-width:5;"/>
	<rect x="100" y="200" width="30" height="125" style="fill: white;stroke:red;stroke-width:5;"/>
	<rect x="400" y="325" width="30" height="125" style="fill: white;stroke:red;stroke-width:5;"/>
</svg>