<svg version="1.1"
	baseProfile="full"
	xmlns="http://www.w3.org/2000/svg"
	width="1200" height="600" viewBox="0 0 1200 600">
	<rect x="0" y="0" width="1200" height="600" style="fill:black;"/>
	<rect x="0" y="550" width="1200" height="50" style="fill:blue;"/>
	<rect x="800" y="440" width="400" height="30" style="fill:blue;"/>
	<rect x="170" y="450" width="360" height="30" style="fill:blue;"/>
	<rect x="0" y="325" width="800" height="30" style="fill:blue;"/>
	<rect x="0" y="200" width="400"	 height="30" style="fill:blue;"/>
	<rect x="600" y="210" width="600"	 height="30" style="fill:blue;"/>
	<rect x="800" y="120" width="400"	 height="30" style="fill:blue;"/>
	<rect x="0" y="45" width="840"	 height="30" style="fill:blue;"/>
	<rect x="170" y="450" width="30" height="100" style="fill: white;"/>
	<rect x="1170" y="440" width="30" height="110" style="fill: white;"/>
	<rect x="800" y="210" width="30" height="230" style="fill: white;"/>
	<rect x="370" y="45" width="30" height="155" style="fill: white;"/>
	<rect x="100" y="200" width="30" height="125" style="fill: white;"/>
	<rect x="400" y="325" width="30" height="125" style="fill: white;"/>
</svg>
