<svg version="1.1"
	baseProfile="full"
	xmlns="http://www.w3.org/2000/svg"
	width="1200" height="600" viewBox="0 0 1200 600">
	<rect x="0" y="0" width="1200" height="600" style="fill:black;"/>
	<rect x="0" y="550" width="1200" height="50" style="fill:blue;"/>
	<rect x="800" y="440" width="400" height="30" style="fill:blue;"/>
	<rect x="170" y="450" width="360" height="30" style="fill:blue;"/>
	<rect x="0" y="325" width="800" height="30" style="fill:blue;"/>
	<rect x="0" y="200" width="400"	 height="30" style="fill:blue;"/>
	<rect x="600" y="210" width="600"	 height="30" style="fill:blue;"/>
	<rect x="800" y="125" width="400"	 height="30" style="fill:blue;"/>
	<rect x="0" y="45" width="840"	 height="30" style="fill:blue;"/>
	<rect x="170" y="450" width="30" height="100" style="fill: white;"/>
	<rect x="1170" y="440" width="30" height="110" style="fill: white;"/>
	<rect x="800" y="210" width="30" height="230" style="fill: white;"/>
	<rect x="370" y="45" width="30" height="155" style="fill: white;"/>
	<rect x="100" y="200" width="30" height="125" style="fill: white;"/>
	<rect x="400" y="325" width="30" height="125" style="fill: white;"/>
	<!--rect x="900" y="80" width="30" height="40" style="fill:red;"/>
	<rect x="700" y="510" width="30" height="40" style="fill:red;"/>
	<rect x="700" y="510" width="30" height="40" style="fill:red;"/>
	<rect x="280" y="285" width="30" height="40" style="fill:red;"/>
	<rect x="900" y="400" width="30" height="40" style="fill:red;"/>
	<rect x="100" y="5" width="30" height="40" style="fill:red;"/-->
	<rect x="700" y="5" width="30" height="40" style="fill:green;"/>	
	<rect x="200" y="160" width="30" height="40" style="fill:green;"/>		
	<rect x="1000" y="170" width="30" height="40" style="fill:green;"/>
	<rect x="550" y="285" width="30" height="40" style="fill:green;"/>
	<rect x="10" y="510" width="30" height="40" style="fill:green;"/>	
	<rect x="1100" y="510" width="30" height="40" style="fill:green;"/>	
	<rect x="1100" y="510" width="30" height="40" style="fill:green;"/>
	<rect x="300" y="410" width="30" height="40" style="fill:green;"/>
	<rect x="1000" y="400" width="30" height="40" style="fill:green;"/>	
	<rect x="10" y="285" width="30" height="40" style="fill:green;"/>	
	<rect x="10" y="5" width="30" height="40" style="fill:yellow;"/>
	<!--rect x="1100" y="80" width="30" height="40" style="fill:red;"/-->
	<rect x="1100" y="85" width="30" height="40" style="fill:yellow;"/>	
	<rect x="600" y="5" width="30" height="40" style="fill:yellow"/>
	<rect x="885" y="400" width="30" height="40" style="fill:yellow;"/>
	<rect x="815" y="170" width="30" height="40" style="fill:yellow;"/>
	<!--rect x="300" y="160" width="30" height="40" style="fill:plum;"/-->


</svg>
